<svg xmlns="http://www.w3.org/2000/svg" viewBox="0 0 512 512" width="512" height="512"><defs>
<linearGradient id="bg-l" x1="0" y1="0" x2="0" y2="1"><stop offset="0" stop-color="#18191d"/><stop offset="1" stop-color="#08080a"/></linearGradient>
<radialGradient id="glow-l" cx="0.5" cy="0.5" r="0.5"><stop offset="0" stop-color="#f5a524" stop-opacity="0.35"/><stop offset="1" stop-color="#f5a524" stop-opacity="0"/></radialGradient>
<radialGradient id="iris-l" cx="0.5" cy="0.5" r="0.5"><stop offset="0" stop-color="#ffe08a"/><stop offset="0.55" stop-color="#f5a524"/><stop offset="1" stop-color="#8a4b00"/></radialGradient>
<linearGradient id="lid-l" gradientUnits="userSpaceOnUse" x1="0" y1="90" x2="0" y2="420"><stop offset="0" stop-color="#ffe08a"/><stop offset="1" stop-color="#f5a524"/></linearGradient>
</defs><rect x="16" y="16" width="480" height="480" rx="112" fill="url(#bg-l)"/>
<circle cx="256" cy="256" r="220" fill="url(#glow-l)"/>
<rect x="19" y="19" width="474" height="474" rx="109" fill="none" stroke="#f5a524" stroke-opacity="0.5" stroke-width="6"/><path d="M92 176 Q256 34 420 176" fill="none" stroke="url(#lid-l)" stroke-width="16" stroke-linecap="round" stroke-opacity="0.75"/><path d="M58 262 Q256 70 454 262 Q256 454 58 262 Z" fill="#f5a524" fill-opacity="0.10" stroke="url(#lid-l)" stroke-width="26" stroke-linejoin="miter" stroke-miterlimit="10"/><circle cx="256" cy="262" r="96" fill="url(#iris-l)"/><circle cx="256" cy="262" r="96" fill="none" stroke="#8a4b00" stroke-width="8"/><path d="M256 186 Q282 262 256 338 Q230 262 256 186 Z" fill="#09090b"/><circle cx="290" cy="226" r="14" fill="#ffffff" fill-opacity="0.85"/><circle cx="226" cy="300" r="6" fill="#ffffff" fill-opacity="0.35"/></svg>